<?xml version="1.0" standalone="no"?>
<!DOCTYPE svg PUBLIC "-//W3C//DTD SVG 20010904//EN"
 "http://www.w3.org/TR/2001/REC-SVG-20010904/DTD/svg10.dtd">
<svg version="1.0" xmlns="http://www.w3.org/2000/svg"
 width="500.000000pt" height="500.000000pt" viewBox="0 0 500.000000 500.000000"
 preserveAspectRatio="xMidYMid meet">
<metadata>
Created by potrace 1.14, written by Peter Selinger 2001-2017
</metadata>
<g transform="translate(0.000000,500.000000) scale(0.100000,-0.100000)"
fill="#000000" stroke="none">
<path d="M2506 4083 c-100 -309 -328 -1053 -328 -1068 1 -19 458 -1484 466
-1492 2 -2 11 17 20 44 42 131 785 2512 791 2536 l7 27 -470 0 -470 0 -16 -47z"/>
<path d="M3262 3307 c-128 -408 -232 -746 -232 -752 -1 -5 118 -389 262 -852
l263 -843 474 0 c433 0 473 1 467 16 -4 9 -228 724 -498 1588 -270 864 -494
1574 -497 1578 -4 4 -111 -326 -239 -735z"/>
<path d="M1151 2938 c-11 -35 -158 -504 -326 -1043 -168 -539 -310 -992 -315
-1007 l-9 -28 472 0 472 0 328 1048 c180 576 330 1057 334 1070 l5 22 -470 0
-470 0 -21 -62z"/>
<path d="M1912 2178 c-128 -409 -233 -749 -232 -757 0 -14 91 -314 146 -484
l26 -77 469 0 c258 0 469 3 469 7 0 11 -631 2026 -639 2041 -4 7 -112 -322
-239 -730z"/>
</g>
</svg>
